<svg width="16" height="16" viewBox="0 0 16 16" fill="none" xmlns="http://www.w3.org/2000/svg">
    <g clip-path="url(#clip0_2008_4608)">
        <path
            d="M9.30936 9.56944C9.34936 9.59444 9.39186 9.60444 9.43686 9.60444C9.48186 9.60444 9.52686 9.59444 9.56686 9.56944C12.2744 7.89944 14.0994 5.66444 14.3319 3.74194C14.4344 2.86444 14.1944 2.09444 13.6269 1.52694C13.0694 0.961943 12.3244 0.656943 11.5369 0.676943C10.7644 0.694443 10.0269 1.01194 9.43436 1.57694C8.84436 1.01194 8.10686 0.694443 7.33186 0.676943C6.53686 0.654443 5.80186 0.959443 5.24186 1.52694C4.67936 2.09444 4.43436 2.86444 4.53936 3.74194C4.77186 5.66444 6.59936 7.89944 9.30936 9.56944Z"
            fill="#FED189" />
        <path d="M0 14.7536H2.83V9.30859H0.4125L0 14.7536Z" fill="#FED189" />
        <path
            d="M15.9082 10.9184C15.7457 10.6609 15.4132 10.5584 15.1307 10.6859L10.7707 12.6709V12.6734C10.7607 12.6759 10.7507 12.6809 10.7432 12.6834L10.7157 12.6959C10.7157 12.6959 10.7157 12.6959 10.7157 12.6984C10.5832 12.7559 10.4407 12.7884 10.3032 12.7884H6.4182C6.5632 12.4834 6.8732 12.2709 7.2357 12.2709H10.3007C10.3682 12.2709 10.4332 12.2559 10.4982 12.2259L10.5307 12.2109C10.5732 12.1884 10.6082 12.1609 10.6382 12.1309C10.7007 12.0659 10.7782 11.9559 10.7782 11.7934C10.7782 11.5334 10.5632 11.3209 10.3007 11.3209H7.9232C7.7157 11.3209 7.5082 11.2684 7.3207 11.1709L5.3107 10.1134C5.2007 10.0534 5.0757 10.0234 4.9482 10.0234H3.3457V14.0209H4.5057C4.6557 14.0209 4.8057 14.0459 4.9482 14.0984L8.0782 15.2309C8.4907 15.3809 8.9482 15.3484 9.3332 15.1434L15.6757 11.7909C15.8782 11.6859 16.0007 11.4759 16.0007 11.2459C16.0007 11.1309 15.9707 11.0159 15.9082 10.9184Z"
            fill="#FED189" />
    </g>
    <defs>
        <clipPath id="clip0_2008_4608">
            <rect width="16" height="16" fill="white" />
        </clipPath>
    </defs>
</svg>
