<svg width="16" height="16" viewBox="0 0 16 16" fill="none" xmlns="http://www.w3.org/2000/svg">
<path d="M14.416 7.08464H8.91602V1.58464C8.91602 1.03464 8.54935 0.667969 7.99935 0.667969C7.44935 0.667969 7.08268 1.03464 7.08268 1.58464V7.08464H1.58268C1.03268 7.08464 0.666016 7.4513 0.666016 8.0013C0.666016 8.5513 1.03268 8.91797 1.58268 8.91797H7.08268V14.418C7.08268 14.968 7.44935 15.3346 7.99935 15.3346C8.54935 15.3346 8.91602 14.968 8.91602 14.418V8.91797H14.416C14.966 8.91797 15.3327 8.5513 15.3327 8.0013C15.3327 7.4513 14.966 7.08464 14.416 7.08464Z" fill="#343B49"/>
<path d="M8.66602 7.08464V7.33464H8.91602H14.416C14.6342 7.33464 14.7966 7.40627 14.9038 7.51349C15.011 7.62072 15.0827 7.78311 15.0827 8.0013C15.0827 8.21949 15.011 8.38189 14.9038 8.48911C14.7966 8.59633 14.6342 8.66797 14.416 8.66797H8.91602H8.66602V8.91797V14.418C8.66602 14.6362 8.59438 14.7986 8.48716 14.9058C8.37993 15.013 8.21754 15.0846 7.99935 15.0846C7.78116 15.0846 7.61876 15.013 7.51154 14.9058C7.40432 14.7986 7.33268 14.6362 7.33268 14.418V8.91797V8.66797H7.08268H1.58268C1.36449 8.66797 1.2021 8.59633 1.09488 8.48911C0.987654 8.38189 0.916016 8.21949 0.916016 8.0013C0.916016 7.78311 0.987654 7.62072 1.09488 7.51349C1.2021 7.40627 1.36449 7.33464 1.58268 7.33464H7.08268H7.33268V7.08464V1.58464C7.33268 1.36645 7.40432 1.20405 7.51154 1.09683C7.61876 0.989607 7.78116 0.917969 7.99935 0.917969C8.21754 0.917969 8.37993 0.989607 8.48716 1.09683C8.59438 1.20405 8.66602 1.36645 8.66602 1.58464V7.08464Z" stroke="black" stroke-opacity="0.5" stroke-width="0.5"/>
</svg>
